<svg xmlns="http://www.w3.org/2000/svg" width="1000" height="470" viewBox="0 0 1000 470" font-family="sans-serif">
  <defs>
    <marker id="arr" viewBox="0 0 10 10" refX="9" refY="5" markerWidth="7" markerHeight="7" orient="auto-start-reverse">
      <path d="M0,0 L10,5 L0,10 z" fill="#334155"/>
    </marker>
  </defs>
  <rect x="0" y="0" width="1000" height="470" fill="#ffffff"/>
  <text x="30" y="40" font-size="18" fill="#0f172a">GC 执行前：堆、根与空闲链表</text>
  <rect x="760" y="18" width="26" height="18" fill="#dbeafe" stroke="#2563eb"/>
  <text x="794" y="33" font-size="13" fill="#334155">对象</text>
  <rect x="860" y="18" width="26" height="18" fill="#ffffff" stroke="#64748b"/>
  <text x="894" y="33" font-size="13" fill="#334155">空闲分块</text>

  <ellipse cx="430" cy="115" rx="130" ry="52" fill="#dbeafe" stroke="#2563eb"/>
  <text x="430" y="121" font-size="16" fill="#0f172a" text-anchor="middle">根</text>
  <line x1="350" y1="160" x2="190" y2="312" stroke="#334155" stroke-width="1.5" marker-end="url(#arr)"/>
  <line x1="515" y1="160" x2="622" y2="312" stroke="#334155" stroke-width="1.5" marker-end="url(#arr)"/>

  <rect x="30" y="300" width="940" height="90" fill="#f8fafc" stroke="#64748b"/>
  <!-- 对象组 O1..O7 -->
  <rect x="50" y="322" width="28" height="46" fill="#dbeafe" stroke="#2563eb"/>
  <rect x="78" y="322" width="28" height="46" fill="#dbeafe" stroke="#2563eb"/>
  <rect x="106" y="322" width="28" height="46" fill="#dbeafe" stroke="#2563eb"/>
  <rect x="170" y="322" width="28" height="46" fill="#dbeafe" stroke="#2563eb"/>
  <rect x="198" y="322" width="28" height="46" fill="#dbeafe" stroke="#2563eb"/>
  <rect x="226" y="322" width="28" height="46" fill="#dbeafe" stroke="#2563eb"/>
  <rect x="290" y="322" width="28" height="46" fill="#dbeafe" stroke="#2563eb"/>
  <rect x="318" y="322" width="28" height="46" fill="#dbeafe" stroke="#2563eb"/>
  <rect x="346" y="322" width="28" height="46" fill="#dbeafe" stroke="#2563eb"/>
  <rect x="374" y="322" width="28" height="46" fill="#dbeafe" stroke="#2563eb"/>
  <rect x="470" y="322" width="28" height="46" fill="#dbeafe" stroke="#2563eb"/>
  <rect x="498" y="322" width="28" height="46" fill="#dbeafe" stroke="#2563eb"/>
  <rect x="526" y="322" width="28" height="46" fill="#dbeafe" stroke="#2563eb"/>
  <rect x="610" y="322" width="28" height="46" fill="#dbeafe" stroke="#2563eb"/>
  <rect x="638" y="322" width="28" height="46" fill="#dbeafe" stroke="#2563eb"/>
  <rect x="666" y="322" width="28" height="46" fill="#dbeafe" stroke="#2563eb"/>
  <rect x="750" y="322" width="28" height="46" fill="#dbeafe" stroke="#2563eb"/>
  <rect x="778" y="322" width="28" height="46" fill="#dbeafe" stroke="#2563eb"/>
  <rect x="806" y="322" width="28" height="46" fill="#dbeafe" stroke="#2563eb"/>
  <rect x="880" y="322" width="28" height="46" fill="#dbeafe" stroke="#2563eb"/>
  <rect x="908" y="322" width="28" height="46" fill="#dbeafe" stroke="#2563eb"/>
  <rect x="936" y="322" width="28" height="46" fill="#dbeafe" stroke="#2563eb"/>

  <!-- 对象间引用 -->
  <circle cx="226" cy="345" r="3" fill="#334155"/>
  <path d="M 226 322 V 262 H 304 V 318" fill="none" stroke="#334155" stroke-width="1.5" marker-end="url(#arr)"/>
  <circle cx="666" cy="345" r="3" fill="#334155"/>
  <path d="M 666 322 V 262 H 764 V 318" fill="none" stroke="#334155" stroke-width="1.5" marker-end="url(#arr)"/>
  <circle cx="806" cy="345" r="3" fill="#334155"/>
  <path d="M 806 322 V 272 H 894 V 318" fill="none" stroke="#334155" stroke-width="1.5" marker-end="url(#arr)"/>

  <text x="952" y="418" font-size="14" fill="#64748b" text-anchor="end">堆</text>

  <text x="50" y="455" font-size="14" fill="#334155">空闲链表</text>
  <circle cx="150" cy="449" r="3" fill="#334155"/>
  <line x1="158" y1="449" x2="210" y2="449" stroke="#334155" stroke-width="1.5" marker-end="url(#arr)"/>
  <text x="222" y="455" font-size="14" fill="#334155">NULL</text>
</svg>
